<svg xmlns="http://www.w3.org/2000/svg" width="1em" height="1em" fill="#facc15" viewBox="0 0 256 256" class="w-5 h-5"><path d="M224,128v80a16,16,0,0,1-16,16H48a16,16,0,0,1-16-16V48A16,16,0,0,1,48,32h80a8,8,0,0,1,0,16H48V208H208V128a8,8,0,0,1,16,0Zm5.66-58.34-96,96A8,8,0,0,1,128,168H96a8,8,0,0,1-8-8V128a8,8,0,0,1,2.34-5.66l96-96a8,8,0,0,1,11.32,0l32,32A8,8,0,0,1,229.66,69.66Zm-17-5.66L192,43.31,179.31,56,200,76.69Z" fill="rgb(250, 204, 21)" stroke-width="1px" fill-opacity="1" stroke-opacity="1"></path></svg>