<svg xmlns="http://www.w3.org/2000/svg" width="14" height="14" fill="#F472B6" viewBox="0 0 256 256"><path d="M208,96v64H48V96Z" opacity="0.2" fill="rgb(244, 114, 182)" stroke-width="1px" fill-opacity="1" stroke-opacity="1"></path><path d="M56,96v64a8,8,0,0,1-16,0V96a8,8,0,0,1,16,0ZM88,24a8,8,0,0,0-8,8V224a8,8,0,0,0,16,0V32A8,8,0,0,0,88,24Zm40,32a8,8,0,0,0-8,8V192a8,8,0,0,0,16,0V64A8,8,0,0,0,128,56Zm40,32a8,8,0,0,0-8,8v64a8,8,0,0,0,16,0V96A8,8,0,0,0,168,88Zm40-16a8,8,0,0,0-8,8v96a8,8,0,0,0,16,0V80A8,8,0,0,0,208,72Z" fill="rgb(244, 114, 182)" stroke-width="1px" fill-opacity="1" stroke-opacity="1"></path></svg>