<svg xmlns="http://www.w3.org/2000/svg" width="14" height="14" fill="#3067FF" viewBox="0 0 256 256"><path d="M192,88V200a8,8,0,0,1-8,8H40a8,8,0,0,1-8-8V88a8,8,0,0,1,8-8H184A8,8,0,0,1,192,88Z" opacity="0.2" fill="rgb(48, 103, 255)" stroke-width="1px" fill-opacity="1" stroke-opacity="1"></path><path d="M184,72H40A16,16,0,0,0,24,88V200a16,16,0,0,0,16,16H184a16,16,0,0,0,16-16V88A16,16,0,0,0,184,72Zm0,128H40V88H184V200ZM232,56V176a8,8,0,0,1-16,0V56H64a8,8,0,0,1,0-16H216A16,16,0,0,1,232,56Z" fill="rgb(48, 103, 255)" stroke-width="1px" fill-opacity="1" stroke-opacity="1"></path></svg>