<svg xmlns="http://www.w3.org/2000/svg" width="18" height="18" fill="currentColor" viewBox="0 0 256 256"><path d="M224,56V200a8,8,0,0,1-8,8H40a8,8,0,0,1-8-8V56a8,8,0,0,1,8-8H216A8,8,0,0,1,224,56Z" opacity="0.2" fill="rgb(117, 117, 117)" stroke-width="1px" fill-opacity="1" stroke-opacity="1"></path><path d="M216,40H40A16,16,0,0,0,24,56V200a16,16,0,0,0,16,16H216a16,16,0,0,0,16-16V56A16,16,0,0,0,216,40Zm0,160H40V56H216V200ZM80,84A12,12,0,1,1,68,72,12,12,0,0,1,80,84Zm40,0a12,12,0,1,1-12-12A12,12,0,0,1,120,84Z" fill="rgb(117, 117, 117)" stroke-width="1px" fill-opacity="1" stroke-opacity="1"></path></svg>